<?xml version="1.0" encoding="UTF-8"?>
<svg width="100px" height="100px" viewBox="0 0 100 100" version="1.1" xmlns="http://www.w3.org/2000/svg" xmlns:xlink="http://www.w3.org/1999/xlink">
    <!-- Generator: Sketch 42 (36781) - http://www.bohemiancoding.com/sketch -->
    <title>COMPACTIFIED mark</title>
    <desc>Created with Sketch.</desc>
    <defs>
        <linearGradient x1="0%" y1="0%" x2="97.4685434%" y2="97.4685434%" id="linearGradient-1">
            <stop stop-color="#FF6B33" offset="0%"></stop>
            <stop stop-color="#8351E1" offset="100%"></stop>
        </linearGradient>
    </defs>
    <g id="Symbols" stroke="none" stroke-width="1" fill="none" fill-rule="evenodd">
        <g id="COMPACTIFIED-mark">
            <rect id="Rectangle-3" fill="url(#linearGradient-1)" x="0" y="0" width="100" height="100"></rect>
            <path d="M43.2634088,64.5876847 C43.2634088,68.9970002 44.3657377,73.4063157 43.2634088,77.8156313 L43.2634088,77.8156313 C44.3657377,78.9179601 44.3657377,80.020289 44.3657377,81.1226179 C45.4680666,84.5673957 47.5349332,85.5319334 50.979711,85.5319334 C54.2866976,85.5319334 56.4913554,84.5673957 56.4913554,81.1226179 C57.5936843,78.9179601 58.6960131,76.7133024 58.6960131,73.4063157 C57.5936843,72.3039869 58.6960131,72.3039869 59.798342,71.201658 L67.5146442,71.201658 C68.6169731,72.3039869 69.8570931,72.3039869 69.8570931,73.4063157 L69.8570931,78.9179601 C69.8570931,82.2249468 69.8570931,85.5319334 67.5146442,87.7365912 C66.4123153,91.1813689 64.3454487,93.3860267 62.0029998,95.4528934 C58.6960131,98.8976711 55.3890265,100 50.979711,100 C46.4326043,100 43.2634088,98.8976711 40.9209599,96.6930134 C35.5471066,93.3860267 32.1023289,88.8389201 32.1023289,82.2249468 L32.1023289,66.6545513 C31,58.9382492 32.1023289,52.3242759 31,45.7103026 C31,41.1631959 32.1023289,37.8562093 31,34.5492227 C31,30.1399071 32.1023289,25.7305916 32.1023289,22.423605 C31,16.9119606 32.1023289,11.262525 35.5471066,7.95553839 C40.9209599,0.23923622 53.1843687,-3.06775042 60.9006709,3.54622286 C62.0029998,3.54622286 63.2431198,4.64855175 63.2431198,5.75088063 C63.2431198,6.85320951 64.3454487,6.85320951 64.3454487,7.95553839 C68.6169731,11.262525 69.8570931,15.8096317 69.8570931,20.0811561 L69.8570931,23.5259338 C69.8570931,26.8329205 68.6169731,27.9352494 65.3099864,29.0375783 L62.0029998,29.0375783 C59.798342,29.0375783 58.6960131,27.9352494 58.6960131,25.7305916 C57.5936843,23.5259338 57.5936843,21.3212761 57.5936843,18.9788272 C56.4913554,16.9119606 54.2866976,14.7073028 52.0820399,14.7073028 C48.7750532,13.4671828 46.4326043,14.7073028 45.4680666,17.8764983 C43.2634088,20.0811561 43.2634088,22.423605 43.2634088,25.7305916 L43.2634088,64.5876847 Z M45.4680666,87.7365912 L44.3657377,87.7365912 L45.4680666,87.7365912 Z M60.9006709,86.6342623 L62.0029998,86.6342623 L62.0029998,87.7365912 L62.0029998,86.6342623 L60.9006709,86.6342623 Z M37.6139733,75.6109735 C38.7163022,75.6109735 38.7163022,75.6109735 38.7163022,74.5086446 L39.8186311,74.5086446 C39.8186311,75.6109735 38.7163022,74.5086446 38.7163022,74.5086446 L37.6139733,75.6109735 Z M38.7163022,34.5492227 L39.8186311,34.5492227 L38.7163022,34.5492227 L38.7163022,35.7893426 L36.5116444,35.7893426 C35.5471066,35.7893426 35.5471066,36.8916715 36.5116444,36.8916715 C37.6139733,36.8916715 37.6139733,35.7893426 38.7163022,35.7893426 L38.7163022,34.5492227 Z M38.7163022,68.9970002 L38.7163022,66.6545513 L39.8186311,66.6545513 L38.7163022,66.6545513 C37.6139733,67.7568802 35.5471066,67.7568802 35.5471066,70.0993291 L35.5471066,70.0993291 C36.5116444,68.9970002 37.6139733,68.9970002 38.7163022,68.9970002 Z M37.6139733,18.9788272 L37.6139733,17.8764983 L37.6139733,18.9788272 Z M37.6139733,66.6545513 L36.5116444,66.6545513 L36.5116444,65.6900136 L36.5116444,66.6545513 L37.6139733,66.6545513 Z M36.5116444,56.7335914 L37.6139733,55.7690536 C37.6139733,55.7690536 36.5116444,55.7690536 36.5116444,56.7335914 Z M63.2431198,24.6282627 C64.3454487,24.6282627 63.2431198,23.5259338 63.2431198,23.5259338 L64.3454487,23.5259338 L63.2431198,23.5259338 L63.2431198,24.6282627 Z M38.7163022,25.7305916 L38.7163022,24.6282627 L37.6139733,24.6282627 C36.5116444,24.6282627 36.5116444,23.5259338 36.5116444,23.5259338 L35.5471066,23.5259338 L36.5116444,23.5259338 C36.5116444,23.5259338 35.5471066,23.5259338 35.5471066,24.6282627 L38.7163022,24.6282627 L38.7163022,25.7305916 Z M35.5471066,45.7103026 L35.5471066,46.6748404 L35.5471066,45.7103026 Z M55.3890265,4.64855175 L55.3890265,5.75088063 C55.3890265,4.64855175 54.2866976,5.75088063 54.2866976,5.75088063 C54.2866976,5.75088063 53.1843687,5.75088063 54.2866976,6.85320951 L55.3890265,6.85320951 L55.3890265,7.95553839 L54.2866976,7.95553839 L54.2866976,9.05786727 L55.3890265,7.95553839 L55.3890265,6.85320951 L56.4913554,6.85320951 C56.4913554,5.75088063 55.3890265,5.75088063 55.3890265,5.75088063 L55.3890265,4.64855175 L54.2866976,3.54622286 L55.3890265,4.64855175 Z M37.6139733,41.1631959 L38.7163022,41.1631959 L37.6139733,41.1631959 Z M63.2431198,20.0811561 L63.2431198,21.3212761 L63.2431198,20.0811561 Z M64.3454487,17.8764983 C65.3099864,17.8764983 65.3099864,16.9119606 65.3099864,16.9119606 L64.3454487,16.9119606 L64.3454487,17.8764974 L64.3454487,17.8764983 Z M64.3454487,17.8764983 L63.2431198,17.8764983 L63.2431198,15.8096317 L62.0029998,15.8096317 C63.2431198,15.8096317 63.2431198,16.9119606 63.2431198,16.9119606 L63.2431198,17.8764983 L64.3454487,17.8764983 Z M53.1843687,95.4528934 L53.1843687,94.4883556 L52.0820399,94.4883556 L53.1843687,95.4528934 Z M46.4326043,87.7365912 L45.4680666,87.7365912 L46.4326043,87.7365912 Z M35.5471066,20.0811561 L35.5471066,21.3212761 L36.5116444,21.3212761 L35.5471066,21.3212761 L35.5471066,20.0811561 Z M38.7163022,56.7335914 L37.6139733,56.7335914 L38.7163022,56.7335914 Z M45.4680666,10.1601962 C45.4680666,10.1601962 44.3657377,10.1601962 44.3657377,11.262525 L43.2634088,11.262525 C43.2634088,11.262525 43.2634088,12.3648539 44.3657377,12.3648539 L44.3657377,11.262525 C44.3657377,11.262525 45.4680666,11.262525 45.4680666,10.1601962 Z M44.3657377,92.2836978 L45.4680666,92.2836978 L44.3657377,92.2836978 L44.3657377,91.1813689 L44.3657377,92.2836978 Z M47.5349332,94.4883556 L46.4326043,94.4883556 L47.5349332,93.3860267 L47.5349332,92.2836978 C46.4326043,92.2836978 46.4326043,92.2836978 46.4326043,93.3860267 L46.4326043,94.4883556 L47.5349332,94.4883556 L47.5349332,95.4528934 L47.5349332,94.4883556 Z M63.2431198,77.8156313 C63.2431198,76.7133024 63.2431198,76.7133024 64.3454487,76.7133024 L64.3454487,75.6109735 L64.3454487,76.7133024 L63.2431198,76.7133024 L63.2431198,75.6109735 L62.0029998,75.6109735 L63.2431198,76.7133024 L63.2431198,77.8156313 Z M66.4123153,78.9179601 L66.4123153,77.8156313 L66.4123153,78.9179601 L66.4123153,78.9179601 Z M63.2431198,78.9179601 L63.2431198,80.020289 L63.2431198,78.9179601 Z M34.3069866,47.7771692 L35.5471066,47.7771692 L34.3069866,47.7771692 Z M38.7163022,84.5673957 C38.7163022,84.5673957 37.6139733,84.5673957 37.6139733,83.4650668 L38.7163022,82.2249468 C38.7163022,81.1226179 37.6139733,82.2249468 37.6139733,82.2249468 L36.5116444,82.2249468 L36.5116444,81.1226179 L36.5116444,83.4650668 L37.6139733,83.4650668 C37.6139733,84.5673957 36.5116444,84.5673957 37.6139733,85.5319334 L37.6139733,83.4650668 C38.7163022,84.5673957 38.7163022,84.5673957 38.7163022,84.5673957 Z M35.5471066,50.1196181 L35.5471066,51.221947 L35.5471066,50.1196181 Z M42.1610799,85.5319334 C42.1610799,85.5319334 40.9209599,85.5319334 42.1610799,86.6342623 L42.1610799,88.8389201 L42.1610799,87.7365912 C42.1610799,87.7365912 43.2634088,87.7365912 43.2634088,86.6342623 C42.1610799,86.6342623 42.1610799,86.6342623 42.1610799,85.5319334 Z M42.1610799,85.5319334 L44.3657377,85.5319334 C43.2634171,84.5674029 42.1610965,85.5319189 42.1610799,85.5319334 L42.1610799,85.5319334 Z M58.6960131,11.262525 L57.5936843,11.262525 L58.6960131,11.262525 C59.798342,10.1601962 58.6960131,10.1601962 58.6960131,9.05786727 L56.4913554,9.05786727 L56.4913554,7.95553839 L56.4913554,9.05786727 L58.6960131,9.05786727 C57.5936843,10.1601962 58.6960131,10.1601962 58.6960131,11.262525 Z M49.8773821,90.0790401 C50.979711,91.1813689 49.8773821,91.1813689 50.979711,91.1813689 C50.979711,91.1813689 50.979711,90.0790401 49.8773821,90.0790401 Z M36.5116444,41.1631959 C36.5116444,41.1631959 35.5471066,41.1631959 35.5471066,42.4033159 L36.5116444,42.4033159 L36.5116444,41.1631959 Z M59.798342,86.6342623 L59.798342,85.5319334 L59.798342,86.6342623 Z M35.5471066,44.6079737 L35.5471066,43.5056448 C34.3069866,43.5056448 35.5471066,43.5056448 35.5471066,44.6079737 Z M42.1610799,9.05786727 C40.9209599,7.95553839 40.9209599,7.95553839 39.8186311,7.95553839 L39.8186311,9.05786727 L42.1610799,9.05786727 Z M54.2866976,92.2836978 L53.1843687,92.2836978 L53.1843687,93.3860267 C54.2866976,93.3860267 54.2866976,92.2836978 54.2866976,92.2836978 Z M36.5116444,31.242236 L36.5116444,29.0375783 C35.5471066,30.1399071 36.5116444,30.1399071 36.5116444,30.1399071 L36.5116444,31.242236 Z M40.9209599,90.0790401 L40.9209599,88.8389201 C40.9209599,88.8389201 39.8186311,88.8389201 39.8186311,90.0790401 L40.9209599,90.0790401 Z M58.6960131,93.3860267 C58.6960131,92.2836978 58.6960131,92.2836978 57.5936843,92.2836978 C57.5936843,93.3860267 57.5936843,93.3860267 58.6960131,93.3860267 Z M52.0820399,11.262525 C52.0820399,10.1601962 53.1843687,10.1601962 53.1843687,10.1601962 C53.1843687,9.05786727 54.2866976,9.05786727 54.2866976,10.1601962 C55.3890265,11.262525 53.1843687,10.1601962 53.1843687,10.1601962 C53.1843687,11.262525 53.1843687,11.262525 52.0820399,11.262525 Z M39.8186311,27.9352494 C38.7163022,29.0375783 38.7163022,30.1399071 38.7163022,31.242236 L39.8186311,31.242236 L39.8186311,27.9352494 Z M62.0029998,84.5673957 C64.3454487,84.5673957 64.3454487,84.5673957 64.3454487,83.4650668 L64.3454487,82.2249468 C63.2431198,82.2249468 63.2431198,82.2249468 63.2431198,83.4650668 C63.2431198,83.4650668 63.2431198,84.5673957 62.0029998,84.5673957 Z M38.7163022,46.6748404 L38.7163022,45.7103026 C37.6139733,45.7103026 37.6139733,46.6748404 37.6139733,46.6748404 L37.6139733,47.7771692 C38.7163022,47.7771692 38.7163022,46.6748404 38.7163022,46.6748404 Z M45.4680666,5.75088063 C45.4680666,5.75088063 44.3657377,5.75088063 44.3657377,4.64855175 L43.2634088,5.75088063 L45.4680666,5.75088063 Z M56.4913554,88.8389201 L57.5936843,88.8389201 L57.5936843,88.8389201 C56.4913554,88.8389201 56.4913554,87.7365912 56.4913554,88.8389201 Z M48.7750532,4.64855175 L47.5349332,4.64855175 L47.5349332,5.75088063 C48.7750532,5.75088063 48.7750532,5.75088063 48.7750532,4.64855175 Z M42.1610799,10.1601962 L42.1610799,11.262525 L42.1610799,10.1601962 Z M37.6139733,50.1196181 L37.6139733,51.221947 C37.6139733,51.221947 38.7163022,51.221947 38.7163022,50.1196181 L37.6139733,50.1196181 Z M39.8186311,57.8359203 L38.7163022,58.9382492 L39.8186311,58.9382492 L39.8186311,57.8359203 Z M35.5471066,34.5492227 L36.5116444,34.5492227 L36.5116444,33.4468938 L35.5471066,34.5492227 Z M39.8186311,44.6079737 L38.7163022,44.6079737 L39.8186311,44.6079737 Z M50.979711,10.1601962 L50.979711,9.05786727 C50.979711,9.05786727 49.8773821,9.05786727 49.8773821,10.1601962 L50.979711,10.1601962 Z M56.4913554,94.4883556 L55.3890265,93.3860267 L55.3890265,94.4883556 L56.4913554,94.4883556 Z M35.5471066,26.8329205 L36.5116444,26.8329205 L35.5471066,26.8329205 Z M43.2634088,90.0790401 L44.3657377,90.0790401 L43.2634088,90.0790401 Z M49.8773821,91.1813689 L48.7750532,91.1813689 L49.8773821,91.1813689 Z M38.7163022,16.9119606 L37.6139733,16.9119606 L38.7163022,16.9119606 Z M40.9209599,17.8764983 L39.8186311,17.8764983 L40.9209599,17.8764983 Z M54.2866976,90.0790401 L55.3890265,90.0790401 L54.2866976,90.0790401 Z M60.9006709,9.05786727 L60.9006709,7.95553839 L59.798342,9.05786727 L60.9006709,9.05786727 Z M60.9006709,20.0811561 L60.9006709,18.9788272 L60.9006709,20.0811561 Z M66.4123153,18.9788272 L65.3099864,18.9788272 L66.4123153,20.0811561 L66.4123153,18.9788272 Z" fill="#FFFFFF"></path>
        </g>
    </g>
</svg>